<svg xmlns="http://www.w3.org/2000/svg" viewBox="-20 -1420 10536 1980" role="img" aria-label="Cincy Week"><g fill="currentColor"><path d="M950 -36.7Q1014.3 -36.7 1074.2 -57.3Q1134 -78 1189.6 -122.6L1139.9 -78.3L1362.4 -416.7H1395.2L1310.5 -26.5Q1203.1 2.5 1106.1 14Q1009 25.6 892.2 25.6Q709.9 25.6 560.2 -22Q410.5 -69.6 301.9 -164.8Q193.3 -259.9 134.8 -400.9Q76.2 -542 76.2 -728.4Q76.2 -944.6 177.8 -1108.2Q279.4 -1271.9 460.6 -1363.7Q641.9 -1455.6 881.9 -1455.6Q969.3 -1455.6 1041.2 -1446.7Q1113.2 -1437.8 1201.6 -1417.8L1117.9 -1394.6L1258.7 -1498.5H1273.9L1377.8 -962.1L1346.1 -953.5L1106.4 -1331.5L1178.8 -1244.2Q1090.1 -1326.9 1015 -1356.8Q939.9 -1386.7 859.3 -1386.7Q775.6 -1386.7 703.2 -1355.4Q630.9 -1324.2 576.7 -1254Q522.5 -1183.8 492 -1067.5Q461.4 -951.3 461.4 -780.9Q461.4 -609 500 -471.7Q538.5 -334.3 606.3 -237.2Q674 -140.1 762.3 -88.4Q850.6 -36.7 950 -36.7Z M1765.9 -1157.3Q1687.3 -1157.3 1641.6 -1207.9Q1595.8 -1258.4 1595.8 -1324.8Q1595.8 -1389.5 1641.6 -1435.6Q1687.3 -1481.6 1765.9 -1481.6Q1845.1 -1481.6 1889.1 -1435.6Q1933.1 -1389.5 1933.1 -1324.8Q1933.1 -1258.4 1889.1 -1207.9Q1845.1 -1157.3 1765.9 -1157.3ZM1940.9 -1054.4V-846.6V-61.5L2045.9 -30.4V0H1503.9V-30.4L1615.1 -63.1V-790.1Q1604.1 -801 1586.3 -817.5Q1568.5 -834 1544.4 -857.3Q1520.4 -880.7 1489.4 -910.8V-937.2L1924.1 -1054.4Z M2571 -819.2V-61.5L2676.1 -30.4V0H2134V-30.4L2245.2 -63.1V-790.1Q2228.6 -807.4 2198 -838.4Q2167.4 -869.5 2119.5 -910.8V-937.2L2554.2 -1054.4H2571ZM2796.1 -30.4 2901.6 -61.5V-676.5Q2901.6 -732.9 2884.2 -767.6Q2866.9 -802.3 2831.7 -818.4Q2796.5 -834.4 2741.2 -834.4Q2687.9 -834.4 2636.5 -819.9Q2585.1 -805.4 2535.9 -781.8L2530.1 -800.6Q2607.6 -880.9 2663.1 -929.4Q2718.7 -977.8 2763.1 -1002.6Q2807.5 -1027.3 2850.9 -1035.7Q2894.2 -1044 2947.6 -1044Q3087.4 -1044 3157.4 -966.9Q3227.4 -889.8 3227.4 -739.3V-63.1L3338 -30.4V0H2796.1Z M3993.9 -1049.6Q4117.8 -1049.6 4192.2 -1023.2Q4266.5 -996.7 4299.4 -956.5Q4332.3 -916.2 4332.3 -873.3Q4332.3 -836.7 4314.8 -809.3Q4297.3 -781.8 4269.2 -766.7Q4241.1 -751.7 4208 -751.7Q4197.8 -751.7 4176.3 -775.3Q4154.8 -799 4125.3 -833.7Q4095.8 -868.3 4060.3 -902.9Q4024.9 -937.5 3987.1 -961.2Q3949.3 -984.9 3911.8 -984.9Q3859.5 -984.9 3819.4 -952.9Q3779.3 -921 3757 -848Q3734.7 -775 3734.7 -651.4Q3734.7 -484.4 3771.1 -383Q3807.5 -281.5 3877.9 -236.3Q3948.4 -191.1 4050 -191.1Q4133.4 -191.1 4199.3 -218.5Q4265.2 -245.8 4329.2 -314.4L4352.1 -295Q4285.2 -174.8 4217.8 -104.6Q4150.3 -34.4 4075.9 -4.4Q4001.5 25.6 3911.8 25.6Q3767.8 25.6 3658.1 -35.4Q3548.4 -96.4 3486.8 -212.3Q3425.2 -328.2 3425.2 -492.9Q3425.2 -612.9 3468.7 -714.5Q3512.2 -816.1 3590.2 -891.2Q3668.1 -966.4 3771.5 -1008Q3874.8 -1049.6 3993.9 -1049.6Z M5159.5 -273.3 5001.2 85.2 4454.6 -951.3 4345.6 -992.7V-1024H4941.1V-991L4818.4 -958.9ZM4671.4 459.4Q4599 459.4 4552 420.5Q4505 381.6 4505 307.7Q4505 274.8 4516.1 250.7Q4527.2 226.7 4543.8 213.5Q4560.4 200.3 4575 200.3Q4583.4 200.3 4605.8 211.2Q4628.2 222 4663.2 233.2Q4698.3 244.4 4742.8 244.4Q4798.5 244.4 4838 233.4Q4877.6 222.4 4906.6 194.7Q4935.5 167.1 4959.4 116.8L5012.9 0.6L5109 -225.2L5374.2 -963.8L5249.8 -991V-1024H5565.4V-991L5455.4 -963.1L5046 81.3Q4989.2 225.5 4932.6 307.8Q4876 390.1 4812.7 424.8Q4749.5 459.4 4671.4 459.4Z"/><path transform="translate(5725 0)" d="M2079.6 -1360.6 1921.3 -1407.7 1928 -1430H2323.3L2317.3 -1407.7L2154 -1357.6L1351.3 13.3H1226.4L1184.4 -1175.2L1256.1 -1210.5L486.3 13.3H361.4L370 -1358L235 -1407.7L241 -1430H827.9L820.9 -1407.7L646.9 -1361L632.6 -249.7H586L1321.8 -1443.3H1455.4L1494.3 -248.7H1441.7Z M2548.1 -997.3Q2491.2 -997.3 2439 -955.5Q2386.9 -913.7 2342.9 -843.7Q2298.9 -773.8 2266.2 -687Q2233.6 -600.1 2215.6 -509Q2197.6 -417.8 2197.6 -335.8Q2197.6 -232.4 2235.6 -186.4Q2273.6 -140.4 2351.3 -140.4Q2408.6 -140.4 2466.4 -163.3Q2524.3 -186.1 2583.4 -244.9Q2642.6 -303.7 2701.9 -410.7L2714.6 -409.4Q2646.6 -235.7 2571.9 -141.7Q2497.2 -47.7 2417.9 -12.2Q2338.5 23.3 2253.8 23.3Q2153.7 23.3 2086.5 -13.7Q2019.3 -50.7 1985.7 -118.6Q1952 -186.4 1952 -278.1Q1952 -379.4 1980.8 -486.9Q2009.7 -594.4 2064.2 -694.4Q2118.7 -794.4 2196.3 -874Q2274 -953.7 2371.7 -1000.5Q2469.4 -1047.3 2584.8 -1047.3Q2675.5 -1047.3 2727.9 -1022.5Q2780.3 -997.7 2802.9 -956.3Q2825.6 -915 2825.6 -867Q2825.6 -818.6 2811.1 -770.6Q2796.6 -722.6 2765.3 -678.6Q2723.9 -658.6 2655 -633.3Q2586.2 -607.9 2501.8 -581.3Q2417.5 -554.6 2326.1 -528.5Q2234.8 -502.3 2147.8 -480.6L2153.8 -515Q2268.5 -554 2350 -590.1Q2431.4 -626.3 2485.3 -662.2Q2539.1 -698 2569.8 -734.8Q2600.4 -771.7 2613.1 -811.2Q2625.8 -850.7 2625.8 -893.7Q2625.8 -927.3 2616.4 -950.7Q2607.1 -974 2589.9 -985.7Q2572.8 -997.3 2548.1 -997.3Z M3434.1 -997.3Q3377.2 -997.3 3325 -955.5Q3272.9 -913.7 3228.9 -843.7Q3184.9 -773.8 3152.2 -687Q3119.6 -600.1 3101.6 -509Q3083.6 -417.8 3083.6 -335.8Q3083.6 -232.4 3121.6 -186.4Q3159.6 -140.4 3237.3 -140.4Q3294.6 -140.4 3352.4 -163.3Q3410.3 -186.1 3469.4 -244.9Q3528.6 -303.7 3587.9 -410.7L3600.6 -409.4Q3532.6 -235.7 3457.9 -141.7Q3383.2 -47.7 3303.9 -12.2Q3224.5 23.3 3139.8 23.3Q3039.7 23.3 2972.5 -13.7Q2905.3 -50.7 2871.7 -118.6Q2838 -186.4 2838 -278.1Q2838 -379.4 2866.8 -486.9Q2895.7 -594.4 2950.2 -694.4Q3004.7 -794.4 3082.3 -874Q3160 -953.7 3257.7 -1000.5Q3355.4 -1047.3 3470.8 -1047.3Q3561.5 -1047.3 3613.9 -1022.5Q3666.3 -997.7 3688.9 -956.3Q3711.6 -915 3711.6 -867Q3711.6 -818.6 3697.1 -770.6Q3682.6 -722.6 3651.3 -678.6Q3609.9 -658.6 3541 -633.3Q3472.2 -607.9 3387.8 -581.3Q3303.5 -554.6 3212.1 -528.5Q3120.8 -502.3 3033.8 -480.6L3039.8 -515Q3154.5 -554 3236 -590.1Q3317.4 -626.3 3371.3 -662.2Q3425.1 -698 3455.8 -734.8Q3486.4 -771.7 3499.1 -811.2Q3511.8 -850.7 3511.8 -893.7Q3511.8 -927.3 3502.4 -950.7Q3493.1 -974 3475.9 -985.7Q3458.8 -997.3 3434.1 -997.3Z M4387.9 -1487.3 3905.9 0H3664.6L4082.9 -1266.5Q4064.9 -1280.9 4040.4 -1299.9Q4015.9 -1318.9 3988.3 -1341.3Q3960.6 -1363.6 3931.6 -1385.6L3934.9 -1400.6L4378.6 -1487.3ZM4078.9 -552.3 4084.2 -568.7Q4218.2 -712 4314.6 -805.3Q4410.9 -898.7 4480.1 -951.5Q4549.2 -1004.3 4600.4 -1025.8Q4651.6 -1047.3 4694.3 -1047.3Q4768.6 -1047.3 4803.8 -1011.2Q4839 -975 4839 -921Q4839 -869.3 4816.2 -830.6Q4793.3 -791.9 4757.1 -770.7Q4721 -749.6 4680 -749.6Q4633.9 -749.6 4617.8 -772.1Q4601.6 -794.6 4605.6 -838.6Q4609.6 -883 4602.2 -897Q4594.9 -911 4575.2 -911Q4548.9 -911 4508.9 -894Q4468.9 -877 4419.6 -844Q4370.3 -811.1 4314.8 -763.1Q4259.4 -715.1 4201.7 -652.5L4255.1 -722.1Q4300.1 -541.5 4334.4 -427.3Q4368.7 -313.1 4395.7 -250.3Q4422.7 -187.5 4444.9 -163.5Q4467.1 -139.5 4486.7 -139.5Q4508.7 -139.5 4537.4 -156.3Q4566.1 -173.1 4606.7 -217.9Q4647.4 -262.8 4705.7 -347.4L4718.4 -339.7Q4641 -196.4 4579 -117.4Q4517 -38.4 4462.6 -7.5Q4408.3 23.3 4353.2 23.3Q4316.9 23.3 4286.4 3Q4255.9 -17.3 4226 -76.3Q4196.2 -135.3 4160.7 -249.7Q4125.2 -364 4078.9 -552.3Z"/></g></svg>
